<svg preserveAspectRatio="none" width="100%" height="100%" overflow="visible" style="display: block;" viewBox="0 0 16 16" fill="none" xmlns="http://www.w3.org/2000/svg">
<g id="iconWrapper" clip-path="url(#clip0_5554_175325)">
<g id="iconShape">
<path d="M12.3571 5.84996C12.5504 5.65274 12.5472 5.33617 12.35 5.14289C12.1527 4.94961 11.8362 4.95281 11.6429 5.15004L7.1 9.78564L5.35711 8.00718C5.16383 7.80995 4.84726 7.80676 4.65004 8.00004C4.45281 8.19332 4.44961 8.50988 4.64289 8.70711L6.74289 10.85C6.83694 10.9459 6.96564 11 7.1 11C7.23436 11 7.36306 10.9459 7.45711 10.85L12.3571 5.84996Z" fill="var(--fill-0, #363636)"/>
<path fill-rule="evenodd" clip-rule="evenodd" d="M8 0C3.58172 0 0 3.58172 0 8C0 12.4183 3.58172 16 8 16C12.4183 16 16 12.4183 16 8C16 3.58172 12.4183 0 8 0ZM1 8C1 4.13401 4.13401 1 8 1C11.866 1 15 4.13401 15 8C15 11.866 11.866 15 8 15C4.13401 15 1 11.866 1 8Z" fill="var(--fill-0, #363636)"/>
</g>
</g>
<defs>
<clipPath id="clip0_5554_175325">
<rect width="16" height="16" fill="white"/>
</clipPath>
</defs>
</svg>
