<svg preserveAspectRatio="none" width="100%" height="100%" overflow="visible" style="display: block;" viewBox="0 0 12.9598 17.5339" fill="none" xmlns="http://www.w3.org/2000/svg">
<g id="outline - fill">
<g id="Vector">
<mask id="path-1-inside-1_5554_175418" fill="white">
<path d="M12.5363 2.25039L6.72217 0.0430479C6.56954 -0.0143493 6.40087 -0.0143493 6.24823 0.0430479L0.423502 2.25039C0.29886 2.29775 0.191673 2.38129 0.116071 2.49002C0.0404687 2.59874 0 2.72754 0 2.85944C0 2.99133 0.0404687 3.12013 0.116071 3.22886C0.191673 3.33758 0.29886 3.42113 0.423502 3.46848L6.24206 5.67583C6.39459 5.7338 6.56348 5.7338 6.71601 5.67583L12.5363 3.46848C12.661 3.42113 12.7682 3.33758 12.8438 3.22886C12.9194 3.12013 12.9598 2.99133 12.9598 2.85944C12.9598 2.72754 12.9194 2.59874 12.8438 2.49002C12.7682 2.38129 12.661 2.29775 12.5363 2.25039ZM6.47904 4.36812L2.50338 2.85944L6.47904 1.35075L10.4556 2.85944L6.47904 4.36812ZM6.47904 2.09552L8.49373 2.85944L6.47904 3.62335L4.46434 2.85944L6.47904 2.09552ZM12.0642 8.9255C12.0549 8.86183 12.0359 8.79993 12.0078 8.74192C12.0078 8.73235 12.0078 8.72191 11.999 8.71234L11.991 8.70277C11.9532 8.63686 11.904 8.57797 11.8457 8.52876C11.8307 8.5157 11.814 8.50613 11.7981 8.49482C11.7765 8.47684 11.7536 8.46055 11.7294 8.4461L6.79617 5.82722C6.70001 5.77627 6.59257 5.7496 6.48344 5.7496C6.37431 5.7496 6.26688 5.77627 6.17071 5.82722L1.23748 8.4461C1.21317 8.46105 1.18992 8.47762 1.16789 8.49569C1.15234 8.50594 1.13735 8.51697 1.12296 8.52876C1.06393 8.57752 1.01438 8.63648 0.976727 8.70277L0.968799 8.71234C0.963514 8.72191 0.968799 8.73235 0.959109 8.74192C0.931648 8.80012 0.912951 8.86196 0.90361 8.9255C0.899383 8.94502 0.89644 8.96478 0.894801 8.98467C0.894801 8.99685 0.889515 9.00903 0.889515 9.02121V14.2625C0.889651 14.3804 0.922061 14.4961 0.983314 14.5973C1.04457 14.6986 1.13239 14.7816 1.23748 14.8376L6.17511 17.4556C6.18304 17.4556 6.19273 17.4556 6.20066 17.4625C6.28911 17.5094 6.38792 17.5339 6.48829 17.5339C6.58865 17.5339 6.68746 17.5094 6.77591 17.4625C6.78384 17.4625 6.79265 17.4625 6.80058 17.4556L11.7382 14.8376C11.8433 14.7816 11.9311 14.6986 11.9924 14.5973C12.0536 14.4961 12.086 14.3804 12.0862 14.2625V9.02469C12.0862 9.01251 12.0862 9.00033 12.0862 8.98815C12.0862 8.97597 12.0677 8.94551 12.0642 8.9255V8.9255ZM6.47904 7.14362L10.0213 9.02208L6.47904 10.904L2.93416 9.02208L6.47904 7.14362ZM2.20211 10.114L5.81834 12.0351V15.7868L2.20211 13.8683V10.114ZM7.13974 15.7868V12.0351L10.7516 10.114V13.8683L7.13974 15.7868ZM0.678091 4.82926C0.677917 4.73388 0.706392 4.64061 0.759912 4.56123C0.813432 4.48184 0.889592 4.41993 0.978753 4.38331C1.06791 4.3467 1.16607 4.33703 1.2608 4.35553C1.35553 4.37403 1.44257 4.41987 1.51091 4.48724C1.57925 4.55462 1.62582 4.6405 1.64472 4.73403C1.66362 4.82755 1.65401 4.92452 1.6171 5.01264C1.58019 5.10077 1.51763 5.1761 1.43736 5.2291C1.35708 5.28211 1.26269 5.3104 1.16613 5.3104C1.03685 5.3104 0.912844 5.25974 0.821345 5.16953C0.729845 5.07932 0.678325 4.95694 0.678091 4.82926V4.82926ZM0.678091 6.25268C0.678091 6.15734 0.706714 6.06415 0.76034 5.98488C0.813966 5.90562 0.890187 5.84384 0.979365 5.80735C1.06854 5.77087 1.16667 5.76132 1.26134 5.77992C1.35601 5.79852 1.44297 5.84443 1.51122 5.91184C1.57948 5.97925 1.62596 6.06514 1.64479 6.15864C1.66362 6.25214 1.65395 6.34906 1.61702 6.43713C1.58008 6.52521 1.51752 6.60049 1.43727 6.65346C1.35701 6.70642 1.26265 6.73469 1.16613 6.73469C1.03669 6.73469 0.912559 6.68391 0.821034 6.59351C0.729509 6.50312 0.678091 6.38051 0.678091 6.25268ZM1.16613 8.15811C1.0696 8.15811 0.975247 8.12984 0.894989 8.07688C0.814732 8.02391 0.752179 7.94863 0.715241 7.86055C0.678302 7.77248 0.668638 7.67556 0.687469 7.58206C0.7063 7.48856 0.752781 7.40267 0.821034 7.33526C0.889287 7.26785 0.976247 7.22194 1.07092 7.20334C1.16559 7.18474 1.26371 7.19429 1.35289 7.23077C1.44207 7.26726 1.51829 7.32904 1.57192 7.4083C1.62554 7.48757 1.65417 7.58076 1.65417 7.6761C1.65417 7.80393 1.60275 7.92654 1.51122 8.01693C1.4197 8.10733 1.29556 8.15811 1.16613 8.15811ZM12.2254 4.82926C12.2254 4.92459 12.1967 5.01778 12.1431 5.09705C12.0895 5.17631 12.0133 5.2381 11.9241 5.27458C11.8349 5.31106 11.7368 5.32061 11.6421 5.30201C11.5474 5.28341 11.4605 5.2375 11.3922 5.17009C11.324 5.10268 11.2775 5.01679 11.2587 4.92329C11.2398 4.82979 11.2495 4.73287 11.2864 4.6448C11.3234 4.55672 11.3859 4.48144 11.4662 4.42848C11.5464 4.37551 11.6408 4.34724 11.7373 4.34724C11.8014 4.34713 11.865 4.35952 11.9242 4.3837C11.9835 4.40788 12.0373 4.44338 12.0827 4.48816C12.128 4.53295 12.164 4.58613 12.1884 4.64466C12.2129 4.70319 12.2255 4.76592 12.2254 4.82926V4.82926ZM12.2254 6.25268C12.2254 6.34801 12.1967 6.4412 12.1431 6.52047C12.0895 6.59973 12.0133 6.66152 11.9241 6.698C11.8349 6.73448 11.7368 6.74403 11.6421 6.72543C11.5474 6.70683 11.4605 6.66092 11.3922 6.59351C11.324 6.5261 11.2775 6.44021 11.2587 6.34671C11.2398 6.25321 11.2495 6.15629 11.2864 6.06822C11.3234 5.98014 11.3859 5.90486 11.4662 5.8519C11.5464 5.79893 11.6408 5.77066 11.7373 5.77066C11.8668 5.77066 11.9909 5.82144 12.0824 5.91184C12.1739 6.00224 12.2254 6.12484 12.2254 6.25268ZM12.2254 7.6761C12.2254 7.77143 12.1967 7.86462 12.1431 7.94389C12.0895 8.02316 12.0133 8.08494 11.9241 8.12142C11.8349 8.1579 11.7368 8.16745 11.6421 8.14885C11.5474 8.13025 11.4605 8.08434 11.3922 8.01693C11.324 7.94952 11.2775 7.86363 11.2587 7.77013C11.2398 7.67663 11.2495 7.57971 11.2864 7.49164C11.3234 7.40356 11.3859 7.32828 11.4662 7.27532C11.5464 7.22235 11.6408 7.19408 11.7373 7.19408C11.8668 7.19408 11.9909 7.24487 12.0824 7.33526C12.1739 7.42566 12.2254 7.54826 12.2254 7.6761V7.6761Z"/>
</mask>
<path d="M12.5363 2.25039L6.72217 0.0430479C6.56954 -0.0143493 6.40087 -0.0143493 6.24823 0.0430479L0.423502 2.25039C0.29886 2.29775 0.191673 2.38129 0.116071 2.49002C0.0404687 2.59874 0 2.72754 0 2.85944C0 2.99133 0.0404687 3.12013 0.116071 3.22886C0.191673 3.33758 0.29886 3.42113 0.423502 3.46848L6.24206 5.67583C6.39459 5.7338 6.56348 5.7338 6.71601 5.67583L12.5363 3.46848C12.661 3.42113 12.7682 3.33758 12.8438 3.22886C12.9194 3.12013 12.9598 2.99133 12.9598 2.85944C12.9598 2.72754 12.9194 2.59874 12.8438 2.49002C12.7682 2.38129 12.661 2.29775 12.5363 2.25039ZM6.47904 4.36812L2.50338 2.85944L6.47904 1.35075L10.4556 2.85944L6.47904 4.36812ZM6.47904 2.09552L8.49373 2.85944L6.47904 3.62335L4.46434 2.85944L6.47904 2.09552ZM12.0642 8.9255C12.0549 8.86183 12.0359 8.79993 12.0078 8.74192C12.0078 8.73235 12.0078 8.72191 11.999 8.71234L11.991 8.70277C11.9532 8.63686 11.904 8.57797 11.8457 8.52876C11.8307 8.5157 11.814 8.50613 11.7981 8.49482C11.7765 8.47684 11.7536 8.46055 11.7294 8.4461L6.79617 5.82722C6.70001 5.77627 6.59257 5.7496 6.48344 5.7496C6.37431 5.7496 6.26688 5.77627 6.17071 5.82722L1.23748 8.4461C1.21317 8.46105 1.18992 8.47762 1.16789 8.49569C1.15234 8.50594 1.13735 8.51697 1.12296 8.52876C1.06393 8.57752 1.01438 8.63648 0.976727 8.70277L0.968799 8.71234C0.963514 8.72191 0.968799 8.73235 0.959109 8.74192C0.931648 8.80012 0.912951 8.86196 0.90361 8.9255C0.899383 8.94502 0.89644 8.96478 0.894801 8.98467C0.894801 8.99685 0.889515 9.00903 0.889515 9.02121V14.2625C0.889651 14.3804 0.922061 14.4961 0.983314 14.5973C1.04457 14.6986 1.13239 14.7816 1.23748 14.8376L6.17511 17.4556C6.18304 17.4556 6.19273 17.4556 6.20066 17.4625C6.28911 17.5094 6.38792 17.5339 6.48829 17.5339C6.58865 17.5339 6.68746 17.5094 6.77591 17.4625C6.78384 17.4625 6.79265 17.4625 6.80058 17.4556L11.7382 14.8376C11.8433 14.7816 11.9311 14.6986 11.9924 14.5973C12.0536 14.4961 12.086 14.3804 12.0862 14.2625V9.02469C12.0862 9.01251 12.0862 9.00033 12.0862 8.98815C12.0862 8.97597 12.0677 8.94551 12.0642 8.9255V8.9255ZM6.47904 7.14362L10.0213 9.02208L6.47904 10.904L2.93416 9.02208L6.47904 7.14362ZM2.20211 10.114L5.81834 12.0351V15.7868L2.20211 13.8683V10.114ZM7.13974 15.7868V12.0351L10.7516 10.114V13.8683L7.13974 15.7868ZM0.678091 4.82926C0.677917 4.73388 0.706392 4.64061 0.759912 4.56123C0.813432 4.48184 0.889592 4.41993 0.978753 4.38331C1.06791 4.3467 1.16607 4.33703 1.2608 4.35553C1.35553 4.37403 1.44257 4.41987 1.51091 4.48724C1.57925 4.55462 1.62582 4.6405 1.64472 4.73403C1.66362 4.82755 1.65401 4.92452 1.6171 5.01264C1.58019 5.10077 1.51763 5.1761 1.43736 5.2291C1.35708 5.28211 1.26269 5.3104 1.16613 5.3104C1.03685 5.3104 0.912844 5.25974 0.821345 5.16953C0.729845 5.07932 0.678325 4.95694 0.678091 4.82926V4.82926ZM0.678091 6.25268C0.678091 6.15734 0.706714 6.06415 0.76034 5.98488C0.813966 5.90562 0.890187 5.84384 0.979365 5.80735C1.06854 5.77087 1.16667 5.76132 1.26134 5.77992C1.35601 5.79852 1.44297 5.84443 1.51122 5.91184C1.57948 5.97925 1.62596 6.06514 1.64479 6.15864C1.66362 6.25214 1.65395 6.34906 1.61702 6.43713C1.58008 6.52521 1.51752 6.60049 1.43727 6.65346C1.35701 6.70642 1.26265 6.73469 1.16613 6.73469C1.03669 6.73469 0.912559 6.68391 0.821034 6.59351C0.729509 6.50312 0.678091 6.38051 0.678091 6.25268ZM1.16613 8.15811C1.0696 8.15811 0.975247 8.12984 0.894989 8.07688C0.814732 8.02391 0.752179 7.94863 0.715241 7.86055C0.678302 7.77248 0.668638 7.67556 0.687469 7.58206C0.7063 7.48856 0.752781 7.40267 0.821034 7.33526C0.889287 7.26785 0.976247 7.22194 1.07092 7.20334C1.16559 7.18474 1.26371 7.19429 1.35289 7.23077C1.44207 7.26726 1.51829 7.32904 1.57192 7.4083C1.62554 7.48757 1.65417 7.58076 1.65417 7.6761C1.65417 7.80393 1.60275 7.92654 1.51122 8.01693C1.4197 8.10733 1.29556 8.15811 1.16613 8.15811ZM12.2254 4.82926C12.2254 4.92459 12.1967 5.01778 12.1431 5.09705C12.0895 5.17631 12.0133 5.2381 11.9241 5.27458C11.8349 5.31106 11.7368 5.32061 11.6421 5.30201C11.5474 5.28341 11.4605 5.2375 11.3922 5.17009C11.324 5.10268 11.2775 5.01679 11.2587 4.92329C11.2398 4.82979 11.2495 4.73287 11.2864 4.6448C11.3234 4.55672 11.3859 4.48144 11.4662 4.42848C11.5464 4.37551 11.6408 4.34724 11.7373 4.34724C11.8014 4.34713 11.865 4.35952 11.9242 4.3837C11.9835 4.40788 12.0373 4.44338 12.0827 4.48816C12.128 4.53295 12.164 4.58613 12.1884 4.64466C12.2129 4.70319 12.2255 4.76592 12.2254 4.82926V4.82926ZM12.2254 6.25268C12.2254 6.34801 12.1967 6.4412 12.1431 6.52047C12.0895 6.59973 12.0133 6.66152 11.9241 6.698C11.8349 6.73448 11.7368 6.74403 11.6421 6.72543C11.5474 6.70683 11.4605 6.66092 11.3922 6.59351C11.324 6.5261 11.2775 6.44021 11.2587 6.34671C11.2398 6.25321 11.2495 6.15629 11.2864 6.06822C11.3234 5.98014 11.3859 5.90486 11.4662 5.8519C11.5464 5.79893 11.6408 5.77066 11.7373 5.77066C11.8668 5.77066 11.9909 5.82144 12.0824 5.91184C12.1739 6.00224 12.2254 6.12484 12.2254 6.25268ZM12.2254 7.6761C12.2254 7.77143 12.1967 7.86462 12.1431 7.94389C12.0895 8.02316 12.0133 8.08494 11.9241 8.12142C11.8349 8.1579 11.7368 8.16745 11.6421 8.14885C11.5474 8.13025 11.4605 8.08434 11.3922 8.01693C11.324 7.94952 11.2775 7.86363 11.2587 7.77013C11.2398 7.67663 11.2495 7.57971 11.2864 7.49164C11.3234 7.40356 11.3859 7.32828 11.4662 7.27532C11.5464 7.22235 11.6408 7.19408 11.7373 7.19408C11.8668 7.19408 11.9909 7.24487 12.0824 7.33526C12.1739 7.42566 12.2254 7.54826 12.2254 7.6761V7.6761Z" fill="var(--fill-0, #363636)" stroke="var(--stroke-0, white)" stroke-width="0.4" mask="url(#path-1-inside-1_5554_175418)"/>
</g>
</g>
</svg>
