<svg preserveAspectRatio="none" width="100%" height="100%" overflow="visible" style="display: block;" viewBox="0 0 14.3388 14.3129" fill="none" xmlns="http://www.w3.org/2000/svg">
<g id="outline - fill">
<path id="Vector" d="M7.17359 11.1662C7.0929 11.1653 7.01335 11.1471 6.94026 11.1129L0.273589 7.65958C0.159091 7.59725 0.0730266 7.49318 0.0332938 7.36901C-0.00643891 7.24485 0.00321764 7.11014 0.0602553 6.99292C0.121353 6.87719 0.22539 6.79002 0.350032 6.75014C0.474675 6.71025 0.609987 6.72082 0.726922 6.77958L7.16692 10.1129L13.6003 6.77958C13.7175 6.72255 13.8522 6.71289 13.9764 6.75262C14.1005 6.79235 14.2046 6.87842 14.2669 6.99292C14.3252 7.11066 14.3348 7.2466 14.2936 7.37135C14.2524 7.49611 14.1638 7.59964 14.0469 7.65958L7.38026 11.1129C7.31586 11.145 7.24545 11.1631 7.17359 11.1662V11.1662ZM7.40026 8.00625L14.0669 4.49958C14.1482 4.45836 14.2165 4.39543 14.2642 4.31776C14.3119 4.24009 14.3371 4.15073 14.3371 4.05958C14.3371 3.96844 14.3119 3.87907 14.2642 3.80141C14.2165 3.72374 14.1482 3.6608 14.0669 3.61958L7.40026 0.0595836C7.3287 0.0204885 7.24846 0 7.16692 0C7.08538 0 7.00515 0.0204885 6.93359 0.0595836L0.266922 3.61958C0.185938 3.66142 0.118127 3.72487 0.071013 3.8029C0.0238988 3.88093 -0.000676351 3.97048 1.41607e-05 4.06163C0.000704673 4.15278 0.0266338 4.24195 0.0749248 4.31926C0.123216 4.39657 0.19198 4.45898 0.273589 4.49958L6.94026 7.95958C7.01335 7.99377 7.0929 8.01196 7.17359 8.01292C7.25019 8.02115 7.32766 8.01204 7.40026 7.98625V8.00625ZM7.17359 1.09292L12.7669 4.07958L7.17359 6.97958L1.58026 4.07958L7.17359 1.09292ZM7.40026 14.2463L14.0669 10.7929C14.1838 10.733 14.2724 10.6294 14.3136 10.5047C14.3548 10.3799 14.3452 10.244 14.2869 10.1263C14.2246 10.0118 14.1205 9.92569 13.9964 9.88596C13.8722 9.84622 13.7375 9.85588 13.6203 9.91292L7.18692 13.2463L0.746922 9.91292C0.630171 9.85917 0.497207 9.85245 0.375631 9.89415C0.254055 9.93585 0.153206 10.0228 0.0940174 10.1368C0.0348288 10.2509 0.0218474 10.3834 0.0577676 10.5068C0.0936879 10.6302 0.175751 10.7351 0.286922 10.7996L6.95359 14.2529C7.02511 14.2922 7.10535 14.3128 7.18692 14.3129C7.26253 14.3091 7.33594 14.2862 7.40026 14.2463V14.2463Z" fill="var(--fill-0, #363636)"/>
</g>
</svg>
