<svg preserveAspectRatio="none" width="100%" height="100%" overflow="visible" style="display: block;" viewBox="0 0 6 6" fill="none" xmlns="http://www.w3.org/2000/svg">
<g id="iconWrapper" clip-path="url(#clip0_5554_175449)">
<path id="iconShape" d="M2.4375 0.224609C3.65943 0.224609 4.65039 1.21557 4.65039 2.4375C4.65039 2.92634 4.48926 3.37695 4.2207 3.74316L5.30078 4.82422C5.43258 4.95602 5.43258 5.16898 5.30078 5.30078C5.16898 5.43258 4.95602 5.43258 4.82422 5.30078L3.74316 4.2207C3.37695 4.48926 2.92634 4.65039 2.4375 4.65039C1.21557 4.65039 0.224609 3.65943 0.224609 2.4375C0.224609 1.21557 1.21557 0.224609 2.4375 0.224609ZM2.4375 0.900391C1.58836 0.900391 0.900391 1.58836 0.900391 2.4375C0.900391 3.28664 1.58836 3.97461 2.4375 3.97461C3.28664 3.97461 3.97461 3.28664 3.97461 2.4375C3.97461 1.58836 3.28664 0.900391 2.4375 0.900391Z" fill="var(--fill-0, #363636)" stroke="var(--stroke-0, #363636)" stroke-width="0.3"/>
</g>
<defs>
<clipPath id="clip0_5554_175449">
<rect width="6" height="6" fill="white"/>
</clipPath>
</defs>
</svg>
