<svg preserveAspectRatio="none" width="100%" height="100%" overflow="visible" style="display: block;" viewBox="0 0 16 16" fill="none" xmlns="http://www.w3.org/2000/svg">
<g id="iconWrapper" clip-path="url(#clip0_5594_179700)">
<g id="iconShape">
<path fill-rule="evenodd" clip-rule="evenodd" d="M7.99995 5C6.34309 5 4.99995 6.34315 4.99995 8C4.99995 9.65685 6.34309 11 7.99995 11C9.6568 11 10.9999 9.65685 10.9999 8C10.9999 6.34315 9.6568 5 7.99995 5ZM5.99995 8C5.99995 6.89543 6.89538 6 7.99995 6C9.10452 6 9.99995 6.89543 9.99995 8C9.99995 9.10457 9.10452 10 7.99995 10C6.89538 10 5.99995 9.10457 5.99995 8Z" fill="var(--fill-0, #363636)"/>
<path fill-rule="evenodd" clip-rule="evenodd" d="M0.821818 4.43297C0.407604 5.15041 0.653418 6.0678 1.37086 6.48201L2.09966 6.90279C1.96343 7.63539 1.96733 8.37913 2.10093 9.09631L1.37086 9.51782C0.653418 9.93204 0.407605 10.8494 0.821819 11.5669L1.32182 12.4329C1.73603 13.1503 2.65342 13.3961 3.37086 12.9819L4.10009 12.5609C4.37545 12.7959 4.67585 13.009 5.00002 13.1961C5.32415 13.3832 5.65883 13.5368 5.99995 13.6578V14.5C5.99995 15.3284 6.67152 16 7.49995 16H8.49995C9.32838 16 9.99995 15.3284 9.99995 14.5V13.6569C10.6879 13.4141 11.334 13.0455 11.9004 12.5612L12.6292 12.982C13.3466 13.3962 14.264 13.1504 14.6782 12.433L15.1782 11.5669C15.5924 10.8495 15.3466 9.93212 14.6292 9.51791L13.9004 9.09713C14.0366 8.36448 14.0327 7.62068 13.8991 6.90345L14.6291 6.48197C15.3466 6.06775 15.5924 5.15037 15.1782 4.43293L14.6782 3.5669C14.2639 2.84946 13.3466 2.60365 12.6291 3.01786L11.8998 3.43891C11.6245 3.20399 11.3241 2.99094 11 2.80381C10.6758 2.61665 10.3411 2.46304 9.99995 2.34205V1.5C9.99995 0.671573 9.32837 2.38419e-07 8.49995 0L7.49995 2.38419e-07C6.67152 7.15256e-07 5.99995 0.671573 5.99995 1.5V2.34302C5.31205 2.58591 4.666 2.95441 4.09966 3.43869L3.37086 3.01791C2.65342 2.6037 1.73603 2.84951 1.32182 3.56695L0.821818 4.43297ZM1.87086 5.61598C1.63171 5.47791 1.54977 5.17212 1.68784 4.93297L2.18784 4.06695C2.32591 3.8278 2.63171 3.74586 2.87086 3.88393L3.91618 4.48745C4.10994 4.59932 4.35443 4.56885 4.5148 4.41285C5.11668 3.8274 5.84916 3.41259 6.63628 3.18953C6.85144 3.12855 6.99995 2.93211 6.99995 2.70847V1.5C6.99995 1.22386 7.22381 1 7.49995 1L8.49995 1C8.77609 1 8.99995 1.22386 8.99995 1.5V2.70708C8.99995 2.93058 9.14828 3.12693 9.36327 3.18803C9.75169 3.29841 10.1334 3.45814 10.5 3.66983C10.8666 3.8815 11.1958 4.13214 11.4856 4.41329C11.646 4.56892 11.8902 4.5992 12.0837 4.48745L13.1291 3.88389C13.3683 3.74582 13.6741 3.82776 13.8121 4.0669L14.3121 4.93293C14.4502 5.17208 14.3683 5.47787 14.1291 5.61594L13.0826 6.22016C12.8889 6.33198 12.793 6.55882 12.8478 6.77565C13.0482 7.56888 13.0552 8.41068 12.8492 9.22469C12.7942 9.44158 12.8901 9.66855 13.0839 9.78042L14.1292 10.3839C14.3683 10.522 14.4503 10.8278 14.3122 11.0669L13.8122 11.933C13.6741 12.1721 13.3683 12.2541 13.1292 12.116L12.0839 11.5125C11.8901 11.4006 11.6456 11.4311 11.4852 11.5871C10.8833 12.1725 10.1508 12.5874 9.36364 12.8104C9.14846 12.8714 8.99995 13.0678 8.99995 13.2915V14.5C8.99995 14.7761 8.77609 15 8.49995 15H7.49995C7.22381 15 6.99995 14.7761 6.99995 14.5V13.2928C6.99995 13.0693 6.85163 12.873 6.63664 12.8119C6.24827 12.7015 5.86664 12.5418 5.50002 12.3301C5.13336 12.1184 4.8042 11.8677 4.51439 11.5865C4.35398 11.4309 4.10977 11.4006 3.91621 11.5124L2.87086 12.1159C2.63171 12.254 2.32592 12.172 2.18784 11.9329L1.68784 11.0669C1.54977 10.8277 1.63171 10.5219 1.87086 10.3838L2.91742 9.77961C3.1111 9.66779 3.20697 9.44096 3.15219 9.22413C2.95181 8.43094 2.94481 7.58919 3.15088 6.77523C3.20579 6.55834 3.10994 6.33137 2.91618 6.2195L1.87086 5.61598Z" fill="var(--fill-0, #363636)"/>
</g>
</g>
<defs>
<clipPath id="clip0_5594_179700">
<rect width="16" height="16" fill="white"/>
</clipPath>
</defs>
</svg>
